<svg width="34" height="32" viewBox="0 0 34 32" fill="none" xmlns="http://www.w3.org/2000/svg">
<path d="M31.89 26.22C31.6951 25.9862 31.4198 25.8338 31.1183 25.7925C30.8167 25.7513 30.5106 25.8243 30.2601 25.9971C30.0096 26.17 29.8327 26.4302 29.7643 26.7268C29.6958 27.0234 29.7406 27.3348 29.89 27.6H4.66V22.18C6.85 16.87 10.32 11.05 11.89 11.05C12.08 11.05 12.43 11.36 12.8 12.23C15.02 17.57 17.53 18.74 19.24 18.78C20.66 18.78 22.61 18.13 24.24 14.73C25.87 11.33 26.97 10.62 27.36 10.66C27.43 10.66 29.08 10.98 30.59 19.09C30.6877 19.3699 30.8825 19.6055 31.139 19.7541C31.3956 19.9028 31.6969 19.9546 31.9883 19.9002C32.2797 19.8457 32.542 19.6887 32.7276 19.4575C32.9132 19.2263 33.0099 18.9363 33 18.64C31.71 11.73 30.06 8.52 27.64 8.21C25.64 7.96 23.81 9.75 21.97 13.68C21.19 15.35 20.23 16.3 19.33 16.3C18.33 16.3 16.64 14.95 15.11 11.3C14.18 9.06 12.87 8.58 11.92 8.58C9.33 8.58 6.63 12.58 4.7 16.31V4.31C4.80344 4.34444 4.9111 4.36463 5.02 4.37C5.26328 4.36735 5.5004 4.29319 5.70184 4.15677C5.90328 4.02034 6.06014 3.82767 6.15288 3.60275C6.24562 3.37783 6.27014 3.13059 6.2234 2.89184C6.17666 2.65308 6.06071 2.43334 5.89 2.26L4.19 0.539999C3.96702 0.320126 3.66964 0.191956 3.35669 0.180845C3.04373 0.169735 2.73801 0.276492 2.5 0.479999L0.62 2.11C0.400674 2.32577 0.27018 2.61591 0.254262 2.92317C0.238343 3.23043 0.338157 3.5325 0.53401 3.76978C0.729864 4.00707 1.00753 4.16233 1.31224 4.20495C1.61695 4.24757 1.92656 4.17444 2.18 4V28.84C2.18264 29.1671 2.31444 29.48 2.5467 29.7104C2.77896 29.9407 3.09286 30.07 3.42 30.07H29.79C29.7024 30.2578 29.6636 30.4648 29.6774 30.6716C29.6911 30.8785 29.7569 31.0785 29.8687 31.253C29.9804 31.4276 30.1345 31.5712 30.3165 31.6703C30.4986 31.7694 30.7027 31.8209 30.91 31.82C31.2391 31.8195 31.5549 31.6903 31.79 31.46L33.45 29.79C33.6713 29.5699 33.8006 29.2738 33.8118 28.9618C33.8229 28.6499 33.715 28.3454 33.51 28.11L31.89 26.22Z" fill="#4CC266"/>
</svg>
